<svg viewBox="0 0 2660 1400" xmlns="http://www.w3.org/2000/svg" fill-rule="evenodd" clip-rule="evenodd" stroke-linecap="round" stroke-linejoin="round" stroke-miterlimit="1.5">
    <g id="Bare-Bear" transform="translate(-.177 -5.414)">
        <g id="Right-Paw">
            <path d="M1504.788 966.094c33.266-6.003 99.798-17.991 133.958-35.787 53.014-27.589 59.879-90.965 25.67-131.307-32.697-38.552-141.913-68.614-210.104-48.817" fill="#f2f2f2" stroke="#404040" stroke-width="10.0041435"/>
        </g>
        <g id="Body" transform="translate(-338.735 -1151.48)">
            <path id="Body-Fill" d="M1393.34 2515.42c-236.48 48.33-656.222-101.64-753.369-212.8-42.391-48.5-87.06-96.37-117.034-153.77-48.82-93.49-32.553-373.48 83.151-585.26 42.73-78.21 86.978-131.41 137.428-180.99 48.072-47.24 165.27-116.5 165.27-116.5s9.07-59.93 76.057-74.82c63.727-14.17 106.407 43.63 106.407 43.63s177.99 29.72 313.38 89.11c132.99 58.34 291.72 188.71 371.64 301.88 75.43 106.81 106.16 303.62 107.89 377.15 2.15 91.55-21.2 214.24-90.5 286.58-81.8 85.39-250.22 195.11-400.32 225.79z" fill="#f2f2f2"/>
            <path id="Shadow" d="M1883.57 2041.93c-4.46 85.11-30.03 185.2-89.91 247.7-81.8 85.39-252.29 186.34-400.32 225.79-193.92 51.67-788.483-123.68-766.842-252.19 67.906 17.97 159.28 113.43 251.607 139.15 122.935 34.23 362.765 90.6 485.995 66.25 279.72-55.27 497.27-222.84 519.47-426.7z" fill="#cacaca" fill-opacity=".446"/>
            <path id="Body-Outline" d="M1393.34 2515.42c-236.48 48.33-656.222-101.64-753.369-212.8-42.391-48.5-87.06-96.37-117.034-153.77-48.82-93.49-32.553-373.48 83.151-585.26 42.73-78.21 86.978-131.41 137.428-180.99 48.072-47.24 165.27-116.5 165.27-116.5s9.07-59.93 76.057-74.82c63.727-14.17 106.407 43.63 106.407 43.63s177.99 29.72 313.38 89.11c132.99 58.34 291.72 188.71 371.64 301.88 75.43 106.81 106.16 303.62 107.89 377.15 2.15 91.55-21.2 214.24-90.5 286.58-81.8 85.39-250.22 195.11-400.32 225.79z" fill="none" stroke="#404040" stroke-width="10"/>
        </g>
        <g id="Left-Paw">
            <path d="M356.551 1143.26c-55.126.11-155.241 5.79-244.777-24.13-52.595-17.58-145.812-130.22-65.504-206.86 58.733-56.04 189.075-70.26 258.567-55.16" fill="#f2f2f2" stroke="#404040" stroke-width="10"/>
        </g>
        <g id="Face">
            <path d="M1089.765 1329.38c56.45-10.04 133.06-44.47 169.59-104.59 17.65-29.06 33.54-86.88 22.81-129.31-15.32-60.59-107.05-164.12-223.4-159.01-169.7 7.44-253.41 250.92-155.49 337.36 52.48 46.32 115.16 68.23 186.49 55.55z" fill="#eaeaea" stroke="#d9d9d9" stroke-width="5"/>
        </g>
        <g id="Left-Ear">
            <path d="M350.823 391.1c17.955 4.57 24.975 18.6 30.621 34.02 8.162 22.29 11.258 48.14 22.012 57.86 22.671 20.51 62.445 4.17 74.042-16.95 11.597-21.11 3.131-88.96-4.46-109.72-35.696-97.61-182.434-99.19-191.796 42.82-1.709 25.92 23.538 98.3 48.159 102.59 13.537 2.35 30.861-7.03 39.523-11.72" fill="#f2f2f2" stroke="#404040" stroke-width="10"/>
        </g>
        <g id="Right-Ear">
            <path d="M1337.845 438.23c9.01-10.61 27.03-31.82 41.04-47.28 68.42-75.57 3.05-163.32-48.18-160.58-51.55 2.75-104.33 89.12-105.42 118.29-1.53 41.06 21.56 73.71 38.48 75.52 16.91 1.82 49.46-28.09 63-64.62" fill="#f2f2f2" stroke="#404040" stroke-width="10"/>
        </g>
        <g id="Tail-fold">
            <path d="M969.62 1263.75c31.11-10.38 53.76-17.15 87.16-17.15" fill="none" stroke="#d9d9d9" stroke-width="4.69" transform="matrix(1.39132 0 0 1.5894 -745.328 -1883.06)"/>
        </g>
        <g id="Features" transform="translate(-338.735 -1151.48)">
            <path id="Mouf" d="M1417.94 2364.18l4.35-62.3c1.38-16.46 20.38-16.03 18.95 1.32l-4.17 59.77c2.04.22 29.79 10.38 44.95 8.61 15.63-1.83 48.43-19.34 48.88-19.59 12.07-6.7 17.9 11.9 4.07 17.69-.29.12-33.88 17.12-51.82 19.02-17.95 1.89-55.86-7.66-55.86-7.66-.82.29-46.71 31.41-69.3 36.18-21.73 4.59-54.75-4.84-66.19-7.55-10.53-2.5-15.44-20.69 4.21-18.46 4.63.53 36.41 14.86 54.49 10.85 20.32-4.5 64.19-36.74 67.44-37.88z" fill="#404040"/>
            <g id="Snoot">
                <path d="M1378.89 2142.09c-25.89 11.87-47.91 53.35-49.59 75.59-1.69 22.24 19.39 45.98 39.49 57.87 21.23 12.56 63.38 28.15 87.87 17.49 24.49-10.67 54.41-57.06 59.08-81.49 4.5-23.61-9.67-54.18-31.11-65.06-22.8-11.58-79.85-16.26-105.74-4.4z" fill="#404040" transform="translate(-5 6)"/>
            </g>
            <g id="Left-Eye">
                <path d="M941.787 2217.65c-17.272 19.93 82.483 81.84 121.003 34.67 6.35-7.77 15.24-19.47 15.29-25.94.05-6.48-3.51-12.85-14.96-12.91-10.1-.06-19.47 21.45-57.18 22.87-22.775.86-58.933-24.72-64.153-18.69z" fill="#404040" transform="matrix(.8973 0 0 .89027 100.459 262.254)"/>
            </g>
            <g id="Right-Eye">
                <path d="M941.787 2217.65c-17.272 19.93 82.483 81.84 121.003 34.67 6.35-7.77 15.24-19.47 15.29-25.94.05-6.48-3.51-12.85-14.96-12.91-10.1-.06-19.47 21.45-57.18 22.87-22.775.86-58.933-24.72-64.153-18.69z" fill="#404040" transform="matrix(-.83668 .32423 .3217 .83012 1810.86 -62.35)"/>
            </g>
        </g>
    </g>
    <g>
        <g>
            <path d="M1742.35 631.324c5.916 26.805 23.036 35.469 41.931 31.298 17.577-3.88 29.46-18.945 23.543-45.75L1756.32 383.54c-5.916-26.805-23.133-35.908-40.71-32.028-18.895 4.17-30.68 19.675-24.764 46.48l51.503 233.333z" fill-rule="nonzero"/>
        </g>
        <g>
            <path d="M1949.542 565.775c-22.85 5.044-44.113-7.774-51.514-20.426-.097-.44-.29-1.319.588-1.513l120.402-26.576c17.577-3.88 29.317-21.678 25.437-39.255l-.679-3.076c-18.321-55.864-74.502-89.086-132.946-76.186-62.837 13.87-102.217 75.558-88.444 137.956 13.967 63.277 75.655 102.656 138.492 88.787 30.76-6.79 84.536-32.485 76.098-70.714-3.201-14.501-14.66-22.571-30.48-19.08-22.85 5.044-23.118 22.615-56.954 30.083zm23.602-87.237c-2.54 1.021-5.176 1.603-8.692 2.38l-76.02 16.779c-1.318.29-.976-.246-1.17-1.124 1.821-10.54 14.343-28.973 37.193-34.016 22.41-4.947 41.482 4.208 48.689 15.98z" fill-rule="nonzero"/>
        </g>
        <g>
            <path d="M2240.815 444.802c6.11 27.683-10.424 52.992-37.229 58.908-27.244 6.014-52.455-10.08-58.566-37.764-6.013-27.244 9.984-52.895 37.228-58.909 26.805-5.916 52.553 10.52 58.567 37.765zm-126.746 196.18c5.335 24.167 18.836 37.316 42.126 32.176 18.016-3.977 29.801-19.482 23.788-46.726l-12.803-58.004c16.053 3.83 32.648 3.854 50.664-.123 62.398-13.773 102.218-75.557 88.445-137.955-13.773-62.398-75.9-101.68-138.299-87.908-21.531 4.753-39.166 14.636-52.8 25.94-7.361-6.209-17.217-9.103-27.763-6.775-20.213 4.462-29.807 23.63-24.764 46.48l51.406 232.894z" fill-rule="nonzero"/>
        </g>
        <g>
            <path d="M2394.955 410.318c-5.722-25.926 10.275-51.577 37.08-57.494 25.926-5.722 51.674 10.714 57.396 36.64 5.917 26.805-10.52 52.553-36.446 58.276-26.805 5.916-52.113-10.618-58.03-37.422zm-66.353 14.646c13.967 63.276 75.655 102.656 138.932 88.689 62.398-13.773 101.778-75.46 87.811-138.738-13.773-62.398-75.46-101.777-137.859-88.004-63.277 13.967-102.657 75.655-88.884 138.053z" fill-rule="nonzero"/>
        </g>
    </g>
</svg>
