<svg viewBox="0 0 1700 1400" xmlns="http://www.w3.org/2000/svg" fill-rule="evenodd" clip-rule="evenodd" stroke-linecap="round" stroke-linejoin="round" stroke-miterlimit="1.5">
    <g id="Bare-Bear">
        <path id="Right-Paw" d="M1504.62 960.679c33.26-5.998 99.79-17.994 133.95-35.777 53.02-27.596 59.87-90.98 25.67-131.321-32.69-38.554-141.91-68.612-210.1-48.815" fill="#f2f2f2" stroke="#000303" stroke-width="10"/>
        <g id="Body">
            <path id="Body-Fill" d="M1054.42 1358.53c-236.473 48.33-656.214-101.64-753.362-212.8-42.39-48.5-87.059-96.37-117.034-153.775-48.819-93.492-32.553-373.476 83.151-585.255 42.731-78.212 86.979-131.409 137.429-180.99 48.071-47.245 165.27-116.501 165.27-116.501s9.069-59.931 76.057-74.821c63.728-14.165 106.411 43.635 106.411 43.635s177.987 29.717 313.378 89.108c132.99 58.336 291.72 188.706 371.64 301.877 75.43 106.811 106.16 303.618 107.89 377.153 2.15 91.545-21.2 214.239-90.5 286.579-81.8 85.39-250.23 195.11-400.33 225.79z" fill="#f2f2f2"/>
            <path id="Shadow" d="M1544.66 885.04c-4.46 85.111-30.04 185.2-89.91 247.7-81.8 85.39-252.29 186.34-400.33 225.79-193.914 51.67-788.475-123.68-766.835-252.19 67.907 17.97 156.622 77.14 258.573 108.5 152.014 46.75 326.547 62.74 449.771 38.39 279.721-55.27 526.521-164.33 548.731-368.19z" fill="#cacaca" fill-opacity=".446"/>
            <path id="Body-Outline" d="M1054.42 1358.53c-236.473 48.33-656.214-101.64-753.362-212.8-42.39-48.5-87.059-96.37-117.034-153.775-48.819-93.492-32.553-373.476 83.151-585.255 42.731-78.212 86.979-131.409 137.429-180.99 48.071-47.245 165.27-116.501 165.27-116.501s9.069-59.931 76.057-74.821c63.728-14.165 106.411 43.635 106.411 43.635s177.987 29.717 313.378 89.108c132.99 58.336 291.72 188.706 371.64 301.877 75.43 106.811 106.16 303.618 107.89 377.153 2.15 91.545-21.2 214.239-90.5 286.579-81.8 85.39-250.23 195.11-400.33 225.79z" fill="none" stroke="#000303" stroke-width="10"/>
        </g>
        <path id="Left-Paw" d="M356.374 1137.85c-55.126.11-155.242 5.79-244.777-24.14-52.596-17.57-145.813-130.211-65.504-206.848 58.733-56.048 189.075-70.265 258.567-55.161" fill="#f2f2f2" stroke="#000303" stroke-width="10"/>
        <path id="Face" d="M1008.79 1325.36c56.46-10.04 213.86-45.86 250.38-105.98 17.66-29.07 28.23-76.92 22.82-129.31-5.79-56-39.24-102.221-43.76-110.597-34.93-64.665-154.23-68.659-218.64-58.169-64.418 10.49-133.803 69.062-167.844 121.106-34.041 52.05-50.389 142.85-36.406 191.18 19.454 67.24 122.123 104.45 193.45 91.77z" fill="#eaeaea" stroke="#d9d9d9" stroke-width="5"/>
        <path id="Left-Ear" d="M350.647 385.687c17.954 4.567 24.975 18.599 30.62 34.019 8.162 22.296 11.258 48.137 22.012 57.865 22.672 20.508 62.445 4.163 74.042-16.949 11.597-21.113 3.131-88.967-4.46-109.726-35.696-97.611-182.434-99.192-191.796 42.82-1.709 25.922 23.538 98.305 48.159 102.589 13.537 2.355 30.861-7.023 39.523-11.712" fill="#f2f2f2" stroke="#000303" stroke-width="10"/>
        <path id="Right-Ear" d="M1337.67 432.814c9.01-10.603 27.03-31.811 41.03-47.28 68.43-75.566 3.06-163.314-48.17-160.579-51.55 2.752-104.33 89.121-105.42 118.29-1.53 41.065 21.56 73.712 38.47 75.529 16.92 1.816 49.47-28.096 63.01-64.628" fill="#f2f2f2" stroke="#000303" stroke-width="10"/>
        <path id="Tail-fold" d="M603.546 120.117c43.289-16.483 74.799-27.253 121.274-27.253" fill="none" stroke="#d9d9d9" stroke-width="7"/>
        <g id="Features">
            <path id="Mouf" d="M1079.03 1207.29l4.35-62.31c1.37-16.45 20.38-16.03 18.95 1.33l-4.17 59.77c2.04.22 29.79 10.38 44.94 8.61 15.64-1.83 48.44-19.34 48.89-19.59 12.07-6.7 17.9 11.9 4.07 17.69-.29.12-33.88 17.12-51.83 19.02-17.94 1.89-55.85-7.66-55.85-7.66-.82.28-46.72 31.41-69.3 36.18-21.729 4.59-54.756-4.84-66.197-7.55-10.53-2.5-15.432-20.69 4.214-18.46 4.63.52 36.406 14.86 54.483 10.85 20.32-4.51 64.2-36.74 67.45-37.88z" fill="#000303"/>
            <path id="Snoot" d="M1039.98 985.202c-25.89 11.866-47.91 53.348-49.594 75.588-1.684 22.24 19.394 45.98 39.494 57.87 21.22 12.56 63.38 28.15 87.87 17.48 24.49-10.66 54.41-57.05 59.07-81.48 4.51-23.61-9.67-54.18-31.1-65.064-22.81-11.576-79.85-16.259-105.74-4.394z"/>
            <path id="Left-Eye" d="M606.616 1079.67c-15.499 17.75 74.008 72.86 108.579 30.87 5.698-6.92 13.668-17.33 13.716-23.1.049-5.76-3.15-11.43-13.425-11.49-9.06-.05-17.472 19.1-51.303 20.36-20.439.77-52.884-22-57.567-16.64z" fill="#000303"/>
            <path id="Right-Eye" d="M1397.38 927.029c20.86 10.946-42.68 94.681-90.09 68.014-7.81-4.394-19.01-11.222-21.14-16.58-2.12-5.357-1.19-11.799 8.37-15.563 8.43-3.32 23.19 11.493 55.2.446 19.33-6.674 41.36-39.625 47.66-36.317z" fill="#000303"/>
        </g>
    </g>
</svg>
