<svg xmlns="http://www.w3.org/2000/svg" viewBox="0 0 300 248" fill-rule="evenodd" clip-rule="evenodd" stroke-linejoin="round" stroke-miterlimit="1.414">
    <path d="M30.578 178.689c-8.717-17.55-5.81-38.206-3.083-56.9 6.653-38.922 27.75-77.017 63.03-96.685 9.951-5.49 14.455-23.476 29.751-16.832 9.49 8.84 22.317 9.169 34.51 12.567 38.24 8.73 72.305 32.325 95.816 63.452 9.57 14.222 13.87 31.21 16.95 47.866 11.242 1.32 27.357 6.295 26.773 20.221.5 16.649-23.315 11.849-27.155 21.976-3.207 18.063-16.178 32.022-30.947 41.894-23.93 17.247-53.188 30.109-83.275 26.12-31.998-3.404-63.782-12.858-91.483-29.422-13.325 5.409-29.842 13.868-43.25 4.152-14.013-7.52-8.147-25.83 3.275-32.525 2.845-2.228 5.9-4.185 9.088-5.884z" fill="#f2f2f2"/>
    <path d="M266.194 135.388c-.559-1.72.79-3.741 1.68-5.266 1.24-2.075 3.83-.48 5.674-.371 6.492 1.476 13.066 3.735 18.178 8.14 5.952 5.355 7.772 14.775 3.995 21.88-2.385 4.786-7.046 7.997-12.02 9.65-4.583 1.589-9.308 2.722-13.962 4.079-2.867.837-1.112-3.253-.47-4.517.78-2.453 2.936-3.684 5.39-3.859 4.201-1.16 8.672-2.135 12.189-4.855 4-3.109 5.26-8.998 3.11-13.546-1.71-4.162-5.948-6.373-9.883-8-4.43-1.78-9.13-2.88-13.881-3.335z" fill="#404040" fill-rule="nonzero"/>
    <path d="M114.563 4.111c11.79.853 11.767 10.398 24.302 9.693 27.675 5.86 61.614 18.459 83.323 36.95 19.687 15.73 37.912 35.412 43.79 60.665 8.182 28.21 11.401 61.112-5.693 86.78-16.292 19.795-39.417 33.24-63.13 42.308-32.734 11.64-68.387 2.739-100.205-7.641-21.375-7.712-43.66-17.338-57.314-36.429-10.386-11.364-18.357-25.561-17.753-41.431-.856-44.698 15.19-92.02 50.417-121.084 8.847-8.407 21.618-15.456 27.241-23.432 3.135-4.446 9.453-6.344 15.022-6.379zm-1.779 7.004c-7.252-.192-11.1 4.814-12.712 11.416-14.538 9.515-30.015 18.667-40.508 33.01-23.013 29.308-33.538 67.81-31.102 104.784 1.034 18.481 15.526 31.929 27.344 44.671 23.522 17.764 52.741 26.338 81.259 32.14 23.183 4.607 48.033 3.89 69.425-7.07 18.759-9.345 38.02-20.52 50.37-37.911 15.97-27.917 9.493-62.12-.806-90.77-9.947-24.79-31.945-42.234-53.245-57.076-22.098-14.795-48.436-21.08-74.176-26.123-4.092-3.608-9.755-7.314-15.849-7.07z" fill="#404040" fill-rule="nonzero"/>
    <path d="M28.315 175.763c2.335.344 2.02 4.187 2.008 6.148-1.2 2.374-4.584 3.089-6.464 5.067-4.828 3.851-9.835 8.633-10.802 15.028-.72 5.731 3.75 10.51 8.38 13.164 4.037 2.332 8.824 3.967 13.509 2.882 8.707-1.301 16.993-4.491 24.982-8.091 2.413.206 4.245 2.619 5.372 4.606-1.723 1.512-4.57 2.215-6.778 3.329-8.72 3.625-17.878 6.781-27.384 7.218-7.46-.45-14.643-4.083-19.751-9.485-4.593-4.771-6.439-12.075-4.088-18.35 3.534-9.841 12.618-16.078 21.016-21.516z" fill="#404040" fill-rule="nonzero"/>
    <path d="M42.807 114.959c3.95.84 5.986 4.831 7.08 8.36 1.47 3.935 1.696 8.485 4.44 11.838 3.585 3.404 9.34 2.475 13.128-.09 2.828-1.768 4.568-4.995 4.492-8.329.443-6.546-.298-13.185-2.1-19.488C66.725 98.048 57.23 91.207 47.41 92c-7.711.5-14.607 5.978-17.366 13.12-1.922 4.672-3.066 9.866-2.373 14.917 1.044 6.1 3.277 12.097 6.998 17.077 1.837 2.634 5.331 2.934 8.067 1.65 1.414-.513 2.753-1.208 4.075-1.922" fill="#f2f2f2"/>
    <path d="M48.99 89.757c11.075-.075 21.284 8.493 23.637 19.233 1.41 6.068 1.958 12.379 1.5 18.595-.242 3.65-2.049 7.19-5.215 9.14-4.59 3.329-11.764 4.233-16.106.02-3.18-3.427-3.401-8.356-4.99-12.553-.861-2.794-2.184-6.218-5.354-6.944-2.91-.702-2.025-5.166.99-4.416 4.77 1.11 7.41 5.85 8.676 10.221 1.133 3.204 1.48 6.721 3.183 9.696 1.847 3.081 6.026 2.718 8.916 1.556 2.734-1.107 5.263-3.48 5.376-6.599.73-5.384-.038-10.849-.904-16.17-1.3-7.332-6.505-14.004-13.69-16.314-6.458-2.346-14.226-.686-18.872 4.46-4.484 4.87-6.454 11.66-6.481 18.174.453 5.58 2.547 10.943 5.255 15.803 1.155 1.696 2.592 4.045 4.994 3.58 2.955.17 5.405-3.703 8.206-2.11 2.504 2.109-.673 4.216-2.655 4.904-3.321 1.62-7.785 2.733-10.888.055-3.87-3.427-5.751-8.476-7.501-13.202-1.596-4.683-2.41-9.735-1.38-14.632 1.281-8.236 5.743-16.523 13.496-20.257a21.974 21.974 0 0 1 9.807-2.24z" fill="#404040" fill-rule="nonzero"/>
    <path d="M250.069 113.075c3.905-4.806 8.287-9.22 12.013-14.168 4.439-6.458 5.204-15.396 1.318-22.299-2.74-5.197-7.723-9.746-13.777-10.286-5.408-.221-10.05 3.293-13.677 6.938-4.846 5.077-8.963 11.094-10.912 17.892-.986 5.373.599 11.084 3.737 15.498 1.437 1.934 3.867 3.948 6.422 2.993 3.438-1.153 5.956-4.017 8.188-6.742a29.344 29.344 0 0 0 4.194-7.527" fill="#f2f2f2"/>
    <path d="M249.091 64.041c7.268.24 13.32 5.673 16.51 11.885 4.08 7.75 3.177 17.689-2.012 24.709-3.402 4.67-7.67 8.627-11.169 13.22-1.643 3.083-6.086.486-4.062-2.428 3.258-3.558 6.432-7.282 9.618-10.941 5.248-5.491 7.385-14.116 4.216-21.183-2.226-5.224-6.764-10.079-12.653-10.73-5.341-.12-9.65 3.748-13.07 7.42-4.112 4.622-7.703 9.952-9.31 15.983-.685 5.09.907 10.53 4.31 14.382 2.451 2.887 5.645-.115 7.604-1.967 3.121-2.9 5.126-6.737 6.834-10.568 2.21-2.228 5.363 1.378 3.275 3.552-2.632 5.979-6.921 11.638-12.998 14.378-2.87 1.124-6.036-.133-7.963-2.377-4.336-4.505-6.08-11.071-5.638-17.204.791-5.443 3.845-10.22 6.896-14.677 4.09-5.661 9.344-11.11 16.263-13.044a13.58 13.58 0 0 1 3.349-.41z" fill="#404040" fill-rule="nonzero"/>
    <path d="M178.027 166.193c5.054.164 10.413.548 14.886 3.123 5.676 3.881 8.28 12.068 5.089 18.33-2.566 5.476-6.063 10.877-11.24 14.198-1.818.552-3.094 1.137-2.734 3.213l-.649 9.307c3.709 1.095 7.842 2.552 11.581.719 2.875-.953 5.453-2.656 8.284-3.654 3.66-.384 3.794 5.307.603 6.128-4.873 2.243-10.056 5.02-15.6 4.075-2.666-.309-5.302-.837-7.913-1.45-4.753 2.941-9.487 6.203-14.928 7.715-5.215.858-10.494-.505-15.489-1.901-2.94-1.071-2.65-6.103.905-5.844 3.232.163 6.123 2.083 9.368 2.376 4.03.845 7.51-1.948 10.818-3.787 1.95-1.458 4.642-2.55 6.13-4.31l.805-11.542c-7.744-1.466-15.913-5.106-19.806-12.366-2.486-4.18-.885-9.18 1.212-13.148 2.635-5.091 6.913-10.15 12.986-10.775 1.88-.308 3.789-.412 5.692-.407zM94.33 186.141c-3.347 3.833 15.982 15.733 23.448 6.666 1.23-1.495 2.951-3.743 2.962-4.988.01-1.245-.681-2.469-2.899-2.481-1.957-.01-3.774 4.124-11.079 4.397-4.414.165-11.42-4.752-12.432-3.594zM237.202 156.025c4.505 2.363-9.217 20.444-19.455 14.687-1.687-.949-4.104-2.423-4.564-3.58-.459-1.157-.257-2.548 1.807-3.361 1.821-.717 5.008 2.482 11.919.096 4.175-1.441 8.932-8.557 10.293-7.842z" fill="#404040"/>
</svg>
