<?xml version="1.0" encoding="UTF-8" standalone="no"?>
<!DOCTYPE svg PUBLIC "-//W3C//DTD SVG 1.1//EN" "http://www.w3.org/Graphics/SVG/1.1/DTD/svg11.dtd">
<svg width="100%" height="100%" viewBox="0 0 300 248" version="1.1" xmlns="http://www.w3.org/2000/svg" xmlns:xlink="http://www.w3.org/1999/xlink" xml:space="preserve" style="fill-rule:evenodd;clip-rule:evenodd;stroke-linejoin:round;stroke-miterlimit:1.41421;">
    <path d="M30.578,178.689C30.181,177.992 29.796,177.288 29.424,176.576C20.809,160.078 23.68,110.668 44.098,73.296C51.639,59.494 59.447,50.106 68.35,41.356C76.833,33.019 97.516,20.797 97.516,20.797C97.516,20.797 99.116,10.221 110.937,7.594C122.184,5.094 129.716,15.294 129.716,15.294C129.716,15.294 161.125,20.538 185.018,31.019C208.487,41.313 236.498,64.32 250.602,84.291C259.503,96.896 264.877,116.603 267.552,132.157C277.154,133.246 286.834,137.081 290.639,141.569C296.675,148.688 295.465,159.873 286.109,164.743C281.661,167.059 274.102,168.818 268.087,170.007C265.939,181.606 261.442,193.307 253.67,201.42C239.234,216.489 209.513,235.851 183.024,241.265C147.609,248.504 88.903,230.539 61.465,212.946C53.769,216.415 43.367,220.684 32.55,221.721C24.223,222.52 4.49,212.722 10.887,197.262C13.933,189.9 22.247,183.122 30.578,178.689Z" style="fill:rgb(242,242,242);"/>
    <path d="M266.194,135.388C265.2,135.296 267.669,128.768 269.445,129.019C271.279,129.278 273.102,129.626 274.903,130.06C276.062,130.338 277.213,130.653 278.353,131.003C279.298,131.293 280.235,131.61 281.163,131.953C282.112,132.304 283.051,132.684 283.976,133.096C284.815,133.469 285.642,133.869 286.453,134.299C287.115,134.651 287.767,135.024 288.404,135.421C288.974,135.776 289.532,136.151 290.073,136.548C290.988,137.221 291.859,137.959 292.642,138.784C292.769,138.918 292.894,139.054 293.016,139.192C293.179,139.376 293.336,139.565 293.491,139.756C293.765,140.096 294.028,140.446 294.279,140.803C294.823,141.579 295.309,142.395 295.731,143.243C296.184,144.152 296.563,145.098 296.864,146.068C297.317,147.526 297.59,149.039 297.673,150.563C297.728,151.562 297.7,152.565 297.591,153.559C297.483,154.537 297.295,155.506 297.028,156.453C296.659,157.763 296.139,159.03 295.481,160.221C295.028,161.04 294.509,161.824 293.933,162.562C293.382,163.266 292.779,163.929 292.131,164.545C291.048,165.574 289.841,166.471 288.551,167.224C287.792,167.668 287.004,168.06 286.201,168.417C285.381,168.783 284.545,169.114 283.701,169.421C282.679,169.794 281.644,170.132 280.602,170.447C279.525,170.773 278.44,171.074 277.35,171.358C275.733,171.78 270.61,173.327 268.977,173.685C266.562,174.215 269.916,166.224 271.84,165.792C272.917,165.549 273.991,165.295 275.061,165.023C275.884,164.814 276.704,164.595 277.521,164.363C278.362,164.123 279.199,163.87 280.03,163.596C280.737,163.363 281.44,163.116 282.134,162.847C282.654,162.645 283.169,162.432 283.676,162.2C284.08,162.015 284.48,161.819 284.869,161.604C285.22,161.411 285.563,161.202 285.895,160.978C286.552,160.535 287.168,160.033 287.728,159.473C288.24,158.961 288.703,158.401 289.107,157.802C289.591,157.084 289.99,156.309 290.292,155.498C290.503,154.932 290.667,154.349 290.783,153.757C290.919,153.06 290.989,152.351 290.994,151.642C291.002,150.495 290.839,149.349 290.518,148.249C290.315,147.555 290.05,146.879 289.728,146.232C289.41,145.594 289.037,144.984 288.614,144.41C288.487,144.238 288.355,144.069 288.22,143.903C288.143,143.81 288.066,143.718 287.986,143.627C287.91,143.541 287.832,143.456 287.753,143.373C287.492,143.101 287.214,142.845 286.926,142.601C286.62,142.341 286.301,142.095 285.974,141.859C285.366,141.421 284.731,141.021 284.08,140.648C283.363,140.237 282.627,139.86 281.879,139.509C280.929,139.064 279.958,138.661 278.975,138.294C278.121,137.974 277.256,137.681 276.383,137.413C274.118,136.718 271.804,136.18 269.465,135.804C268.38,135.629 267.289,135.489 266.194,135.388Z" style="fill:rgb(64,64,64);fill-rule:nonzero;"/>
    <path d="M114.563,4.111C114.922,4.113 115.281,4.124 115.639,4.146C116.333,4.189 117.024,4.269 117.709,4.387C118.767,4.569 119.81,4.839 120.825,5.188C121.77,5.513 122.691,5.906 123.583,6.357C125.258,7.205 126.828,8.256 128.275,9.452C128.805,9.89 129.319,10.349 129.815,10.825C130.356,11.344 130.876,11.885 131.371,12.448C131.589,12.488 131.808,12.527 132.027,12.567C134.268,12.978 136.503,13.42 138.734,13.884C141.128,14.383 143.516,14.908 145.898,15.459C148.671,16.1 151.435,16.777 154.19,17.49C156.96,18.208 159.719,18.963 162.467,19.762C165.063,20.517 167.648,21.311 170.219,22.15C172.691,22.957 175.149,23.806 177.588,24.707C179.626,25.46 181.65,26.248 183.655,27.08C185.248,27.741 186.83,28.429 188.394,29.156C190.392,30.084 192.362,31.071 194.307,32.106C196.28,33.154 198.227,34.251 200.149,35.389C202.23,36.62 204.283,37.898 206.309,39.217C208.38,40.566 210.423,41.957 212.439,43.386C215.067,45.25 217.65,47.178 220.186,49.165C222.868,51.267 225.498,53.435 228.072,55.667C230.566,57.829 233.007,60.051 235.389,62.336C237.537,64.397 239.637,66.509 241.678,68.677C243.191,70.284 244.672,71.921 246.113,73.593C247.326,74.999 248.511,76.429 249.662,77.886C250.517,78.968 251.353,80.065 252.167,81.177C252.744,81.968 253.313,82.765 253.86,83.577C254.845,85.043 255.763,86.554 256.626,88.096C257.366,89.418 258.065,90.764 258.728,92.126C259.429,93.565 260.091,95.022 260.72,96.494C262.024,99.55 263.184,102.666 264.234,105.818C265.47,109.528 266.553,113.289 267.514,117.079C268.494,120.947 269.346,124.847 270.08,128.768C270.475,130.875 270.835,132.988 271.16,135.106C271.467,137.114 271.742,139.126 271.978,141.143C272.176,142.83 272.347,144.522 272.481,146.216C272.592,147.625 272.678,149.037 272.719,150.45C272.73,150.821 272.737,151.193 272.743,151.564C272.752,152.164 272.754,152.765 272.751,153.366C272.743,154.881 272.699,156.395 272.619,157.908C272.528,159.622 272.393,161.333 272.213,163.04C272.028,164.797 271.797,166.549 271.517,168.293C271.184,170.369 270.784,172.435 270.311,174.484C269.876,176.37 269.38,178.242 268.817,180.095C268.276,181.879 267.672,183.644 267,185.384C266.426,186.871 265.803,188.339 265.125,189.782C263.29,193.691 261.054,197.425 258.336,200.786C257.751,201.511 257.143,202.218 256.512,202.904C256.224,203.217 255.931,203.526 255.636,203.831C255.336,204.141 255.035,204.449 254.731,204.754C253.748,205.742 252.742,206.708 251.72,207.655C250.092,209.161 248.421,210.62 246.717,212.039C244.812,213.624 242.866,215.16 240.886,216.65C238.397,218.524 235.855,220.327 233.268,222.063C230.379,224.001 227.433,225.855 224.436,227.623C221.571,229.313 218.659,230.924 215.702,232.448C212.783,233.951 209.82,235.371 206.813,236.69C204.204,237.835 201.563,238.904 198.889,239.885C196.583,240.731 194.252,241.51 191.898,242.21C190.074,242.753 188.236,243.247 186.384,243.686C185.74,243.838 185.095,243.984 184.448,244.122C183.966,244.225 183.484,244.325 183.001,244.419C182.135,244.588 181.266,244.74 180.394,244.878C177.961,245.263 175.511,245.534 173.055,245.714C170.241,245.919 167.42,246.006 164.6,245.998C161.301,245.988 158.002,245.849 154.712,245.607C152.915,245.475 151.119,245.312 149.327,245.121C148.445,245.028 147.564,244.928 146.684,244.82C145.431,244.668 144.179,244.503 142.929,244.326C139.546,243.846 136.175,243.277 132.819,242.632C129.846,242.061 126.885,241.43 123.937,240.743C120.138,239.859 116.361,238.884 112.608,237.824C108.998,236.806 105.411,235.709 101.849,234.535C98.572,233.455 95.317,232.31 92.087,231.097C88.977,229.929 85.891,228.699 82.835,227.399C80.023,226.203 77.236,224.948 74.482,223.624C71.909,222.387 69.365,221.091 66.861,219.719C64.771,218.573 62.708,217.376 60.688,216.11C58.942,215.015 57.226,213.87 55.56,212.655C54.189,211.656 52.852,210.609 51.569,209.499C50.524,208.594 49.515,207.647 48.566,206.641C48.328,206.389 48.095,206.133 47.865,205.874C47.71,205.698 47.557,205.522 47.403,205.347C47.287,205.213 47.17,205.08 47.053,204.947C46.115,203.878 45.174,202.81 44.234,201.742C43.997,201.473 43.761,201.204 43.525,200.935C42.874,200.192 42.224,199.449 41.578,198.702C40.276,197.199 38.986,195.684 37.723,194.147C35.14,191.004 32.666,187.765 30.434,184.36C29.469,182.889 28.55,181.387 27.688,179.852C27.437,179.405 27.19,178.955 26.949,178.502C26.752,178.132 26.557,177.761 26.374,177.384C26.039,176.696 25.736,175.994 25.457,175.282C24.978,174.057 24.573,172.803 24.222,171.536C23.824,170.099 23.495,168.644 23.216,167.18C22.903,165.528 22.654,163.865 22.456,162.196C22.241,160.391 22.085,158.579 21.975,156.765C21.833,154.42 21.77,152.071 21.77,149.721C21.769,147.206 21.842,144.691 21.977,142.18C22.128,139.372 22.356,136.569 22.655,133.774C22.967,130.844 23.357,127.922 23.818,125.012C24.475,120.861 25.278,116.733 26.222,112.638C27.216,108.326 28.367,104.051 29.68,99.825C30.964,95.688 32.404,91.598 34.009,87.574C35.527,83.767 37.193,80.019 39.021,76.35C39.554,75.282 40.1,74.22 40.661,73.165C41.076,72.384 41.499,71.606 41.929,70.833C42.433,69.925 42.947,69.023 43.469,68.125C44.729,65.963 46.043,63.833 47.417,61.741C48.71,59.772 50.056,57.837 51.455,55.941C52.881,54.009 54.363,52.118 55.897,50.27C57.38,48.483 58.911,46.737 60.484,45.03C61.796,43.605 63.137,42.206 64.501,40.831C64.919,40.409 65.34,39.989 65.762,39.571C65.975,39.361 66.188,39.15 66.403,38.942C66.626,38.726 66.851,38.513 67.078,38.302C67.88,37.556 68.707,36.836 69.548,36.133C70.45,35.378 71.37,34.643 72.3,33.922C73.322,33.13 74.358,32.354 75.402,31.59C76.518,30.775 77.644,29.973 78.778,29.183C81.391,27.362 84.043,25.597 86.719,23.871C89.383,22.153 92.071,20.473 94.784,18.834L94.81,18.818C94.831,18.743 94.853,18.667 94.876,18.592C94.897,18.52 94.919,18.449 94.941,18.377C95.021,18.12 95.106,17.864 95.197,17.61C95.519,16.707 95.905,15.826 96.35,14.977C97.204,13.346 98.276,11.829 99.541,10.49C100.21,9.782 100.932,9.125 101.7,8.525C102.469,7.924 103.283,7.381 104.132,6.9C105.628,6.053 107.23,5.4 108.883,4.929C109.212,4.836 109.543,4.749 109.875,4.67C110.438,4.535 111.006,4.421 111.578,4.333C112.178,4.241 112.782,4.178 113.388,4.143C113.682,4.126 113.977,4.116 114.272,4.112C114.369,4.111 114.466,4.111 114.563,4.111ZM114.439,10.288C114.224,10.289 114.009,10.295 113.794,10.306C113.365,10.329 112.937,10.374 112.512,10.439C112.129,10.497 111.749,10.574 111.371,10.663C111.085,10.73 110.801,10.804 110.518,10.886C109.859,11.076 109.211,11.305 108.582,11.577C107.973,11.839 107.381,12.142 106.814,12.486C106.169,12.878 105.556,13.323 104.985,13.818C104.374,14.347 103.813,14.932 103.308,15.562C102.422,16.668 101.707,17.912 101.186,19.23C101.006,19.683 100.849,20.146 100.721,20.616C100.681,20.763 100.643,20.912 100.61,21.061C100.599,21.11 100.589,21.159 100.579,21.208C100.578,21.217 100.574,21.234 100.573,21.243C100.571,21.252 100.569,21.261 100.567,21.271C100.567,21.275 100.566,21.278 100.566,21.282C100.565,21.282 100.566,21.281 100.566,21.281L100.566,21.277L100.388,21.931L100.072,22.531C99.925,22.703 99.796,22.892 99.632,23.047C99.467,23.201 99.272,23.32 99.09,23.454C99.072,23.467 99.052,23.477 99.033,23.488C98.976,23.522 98.919,23.556 98.862,23.59C98.77,23.645 98.677,23.7 98.584,23.756C98.382,23.877 98.179,23.999 97.976,24.122C95.316,25.73 92.679,27.377 90.067,29.062C87.453,30.748 84.862,32.471 82.31,34.25C81.214,35.014 80.126,35.788 79.047,36.577C78.049,37.306 77.061,38.047 76.084,38.804C75.214,39.478 74.354,40.166 73.509,40.872C72.752,41.505 72.006,42.153 71.283,42.826C71.087,43.008 70.892,43.192 70.7,43.379C70.5,43.572 70.303,43.767 70.105,43.963C69.697,44.366 69.291,44.772 68.887,45.18C67.576,46.501 66.288,47.845 65.027,49.214C63.526,50.843 62.065,52.51 60.649,54.215C59.19,55.972 57.781,57.771 56.424,59.609C55.092,61.414 53.811,63.256 52.579,65.131C51.266,67.131 50.01,69.167 48.806,71.234C48.305,72.095 47.812,72.961 47.328,73.832C46.917,74.572 46.512,75.316 46.115,76.064C45.58,77.071 45.058,78.085 44.549,79.105C42.834,82.548 41.267,86.064 39.837,89.634C38.316,93.43 36.948,97.288 35.724,101.19C34.492,105.117 33.405,109.089 32.458,113.095C31.521,117.058 30.722,121.053 30.064,125.072C29.614,127.817 29.231,130.572 28.917,133.336C28.617,135.972 28.382,138.616 28.217,141.264C28.066,143.691 27.974,146.122 27.952,148.554C27.931,150.751 27.967,152.948 28.073,155.143C28.156,156.873 28.282,158.602 28.462,160.325C28.625,161.894 28.834,163.458 29.101,165.012C29.332,166.354 29.606,167.688 29.941,169.008C30.242,170.193 30.591,171.367 31.014,172.516C31.267,173.206 31.548,173.887 31.865,174.551C31.933,174.695 32.004,174.838 32.076,174.981C32.201,175.225 32.33,175.468 32.46,175.71C32.741,176.234 33.029,176.755 33.324,177.271C34.299,178.975 35.35,180.634 36.456,182.255C38.535,185.298 40.809,188.204 43.165,191.036C44.689,192.868 46.248,194.669 47.818,196.462C48.873,197.667 49.933,198.868 50.99,200.07C51.226,200.338 51.461,200.606 51.697,200.875C51.815,201.009 51.932,201.143 52.05,201.278C52.197,201.446 52.344,201.615 52.492,201.783C52.553,201.851 52.614,201.92 52.675,201.988C53.648,203.061 54.706,204.055 55.806,204.996C57.049,206.06 58.349,207.058 59.679,208.011C61.32,209.186 63.009,210.292 64.728,211.348C66.543,212.463 68.391,213.522 70.262,214.538C72.608,215.813 74.991,217.02 77.4,218.173C80.162,219.496 82.959,220.748 85.781,221.939C88.768,223.2 91.784,224.394 94.822,225.526C97.885,226.667 100.972,227.747 104.078,228.766C107.758,229.974 111.467,231.098 115.199,232.136C118.865,233.156 122.554,234.094 126.264,234.941C129.846,235.76 133.447,236.495 137.065,237.136C140.406,237.727 143.761,238.237 147.128,238.652C150.043,239.011 152.967,239.298 155.897,239.499C158.799,239.698 161.708,239.813 164.618,239.821C167.15,239.829 169.684,239.756 172.21,239.582C174.585,239.418 176.955,239.165 179.307,238.797C180.147,238.665 180.985,238.519 181.82,238.356C182.266,238.27 182.71,238.178 183.154,238.083C183.758,237.954 184.36,237.818 184.961,237.675C186.699,237.264 188.425,236.799 190.138,236.29C192.369,235.627 194.577,234.888 196.762,234.086C199.317,233.15 201.84,232.127 204.331,231.034C207.221,229.766 210.068,228.402 212.874,226.957C215.726,225.487 218.534,223.933 221.298,222.303C224.192,220.596 227.037,218.806 229.827,216.934C232.278,215.289 234.688,213.582 237.049,211.808C238.99,210.349 240.899,208.846 242.766,207.292C244.353,205.971 245.91,204.613 247.427,203.212C248.391,202.321 249.339,201.413 250.266,200.484C250.55,200.199 250.832,199.913 251.112,199.624C251.421,199.305 251.728,198.984 252.028,198.655C252.591,198.039 253.133,197.404 253.655,196.752C254.823,195.293 255.888,193.752 256.86,192.155C258.004,190.277 259.018,188.321 259.921,186.316C261.223,183.426 262.295,180.433 263.178,177.39C263.717,175.53 264.186,173.65 264.59,171.756C264.934,170.147 265.231,168.528 265.483,166.903C265.974,163.75 266.299,160.572 266.461,157.385C266.529,156.036 266.568,154.685 266.575,153.333C266.578,152.774 266.575,152.214 266.567,151.654C266.562,151.312 266.555,150.971 266.545,150.629C266.524,149.871 266.487,149.115 266.44,148.358C266.394,147.611 266.339,146.864 266.276,146.118C266.123,144.31 265.929,142.507 265.704,140.707C265.444,138.628 265.144,136.554 264.809,134.486C264.441,132.208 264.03,129.938 263.578,127.676C262.812,123.84 261.929,120.027 260.914,116.249C259.964,112.714 258.898,109.209 257.685,105.756C257.17,104.289 256.627,102.831 256.054,101.385C255.474,99.925 254.864,98.477 254.216,97.046C253.627,95.745 253.007,94.457 252.352,93.188C251.742,92.008 251.1,90.843 250.422,89.7C249.884,88.792 249.322,87.898 248.733,87.022C248.441,86.588 248.142,86.159 247.838,85.733C247.621,85.428 247.402,85.125 247.181,84.823C246.383,83.732 245.563,82.658 244.724,81.599C243.528,80.089 242.293,78.609 241.028,77.156C239.454,75.347 237.832,73.579 236.172,71.849C234.17,69.761 232.112,67.727 230.009,65.743C227.591,63.461 225.111,61.244 222.579,59.091C220.015,56.911 217.395,54.795 214.724,52.746C212.208,50.817 209.645,48.947 207.036,47.144C205.175,45.857 203.291,44.605 201.382,43.392C199.662,42.298 197.921,41.235 196.16,40.209C194.458,39.216 192.735,38.258 190.992,37.339C189.411,36.506 187.813,35.706 186.196,34.946C185.571,34.652 184.943,34.364 184.312,34.083C183.86,33.882 183.408,33.684 182.954,33.489C182.215,33.171 181.473,32.86 180.728,32.554C179.408,32.013 178.08,31.491 176.746,30.986C175.978,30.696 175.208,30.41 174.435,30.13C173.66,29.85 172.883,29.574 172.105,29.303C169.875,28.527 167.632,27.791 165.378,27.089C163.082,26.373 160.775,25.691 158.459,25.04C155.561,24.225 152.649,23.457 149.728,22.73C146.864,22.017 143.991,21.345 141.11,20.71C138.777,20.196 136.439,19.707 134.095,19.247C133.166,19.065 132.237,18.887 131.307,18.715C130.635,18.591 129.962,18.469 129.289,18.354L129.201,18.339C129.012,18.288 128.817,18.255 128.633,18.186C128.264,18.048 127.925,17.841 127.635,17.575C127.49,17.443 127.357,17.297 127.24,17.139C127.214,17.105 127.187,17.071 127.161,17.038C126.993,16.828 126.819,16.624 126.641,16.424C126.465,16.226 126.285,16.032 126.101,15.842C125.578,15.301 125.026,14.787 124.449,14.304C124.164,14.065 123.873,13.834 123.576,13.61C123.345,13.437 123.111,13.268 122.873,13.105C121.47,12.142 119.936,11.357 118.305,10.863C118.059,10.789 117.812,10.722 117.562,10.661C117.22,10.578 116.874,10.508 116.526,10.452C116.092,10.382 115.654,10.334 115.215,10.309C114.989,10.296 114.763,10.289 114.537,10.288C114.504,10.288 114.472,10.288 114.439,10.288Z" style="fill:rgb(64,64,64);fill-rule:nonzero;"/>
    <path d="M28.315,175.763C30.201,174.601 30.954,182.291 29.93,182.891C28.841,183.531 27.771,184.203 26.724,184.91C25.747,185.569 24.791,186.258 23.859,186.978C22.925,187.699 22.016,188.451 21.138,189.24C19.873,190.375 18.671,191.583 17.574,192.882C16.699,193.917 15.89,195.011 15.191,196.173C15.048,196.411 14.91,196.652 14.777,196.896C14.347,197.684 13.973,198.503 13.678,199.352C13.414,200.109 13.214,200.89 13.099,201.685C13.068,201.899 13.043,202.113 13.024,202.328C12.965,203.017 12.973,203.711 13.053,204.397C13.107,204.861 13.194,205.321 13.311,205.774C13.39,206.074 13.481,206.371 13.586,206.663C13.658,206.866 13.736,207.066 13.82,207.264C14.391,208.609 15.218,209.835 16.181,210.93C16.325,211.093 16.472,211.253 16.621,211.411C16.834,211.635 17.052,211.853 17.276,212.066C17.552,212.329 17.836,212.584 18.127,212.831C18.509,213.155 18.902,213.466 19.305,213.764C19.824,214.147 20.359,214.508 20.907,214.849C21.609,215.285 22.333,215.687 23.074,216.055C24.005,216.518 24.965,216.927 25.945,217.276C26.765,217.568 27.6,217.818 28.448,218.013C29.125,218.169 29.811,218.291 30.503,218.359C30.932,218.401 31.363,218.423 31.794,218.41C31.908,218.407 32.022,218.401 32.136,218.392C32.219,218.385 32.302,218.377 32.386,218.369C32.542,218.353 32.697,218.337 32.853,218.32C33.425,218.258 33.997,218.187 34.566,218.107C36.592,217.822 38.601,217.426 40.589,216.946C42.759,216.422 44.904,215.797 47.023,215.096C49.838,214.166 52.607,213.103 55.342,211.959C56.88,211.315 58.407,210.645 59.928,209.961C61.456,209.273 66.097,214.518 65.209,214.926C64.836,215.097 64.462,215.267 64.089,215.438C62.962,215.951 61.832,216.46 60.698,216.958C59.044,217.683 57.381,218.386 55.704,219.055C52.92,220.166 50.097,221.186 47.232,222.069C45.062,222.737 42.868,223.326 40.652,223.814C38.832,224.214 36.998,224.546 35.151,224.795C34.568,224.874 33.984,224.944 33.398,225.006C33.281,225.018 33.164,225.03 33.046,225.042C32.921,225.054 32.795,225.067 32.669,225.077C32.489,225.091 32.309,225.102 32.129,225.109C31.249,225.143 30.366,225.096 29.491,224.994C28.559,224.886 27.634,224.714 26.721,224.496C25.619,224.232 24.532,223.9 23.467,223.511C22.316,223.091 21.188,222.606 20.09,222.061C19.264,221.65 18.455,221.206 17.666,220.728C17.064,220.363 16.474,219.978 15.899,219.574C15.487,219.284 15.082,218.985 14.685,218.675C14.38,218.437 14.08,218.192 13.785,217.942C11.851,216.299 10.132,214.381 8.827,212.199C8.621,211.855 8.425,211.504 8.241,211.148C7.999,210.678 7.775,210.198 7.574,209.709C7.297,209.037 7.062,208.348 6.871,207.647C6.615,206.708 6.441,205.748 6.351,204.78C6.287,204.081 6.266,203.378 6.289,202.676C6.312,201.952 6.381,201.23 6.494,200.514C6.691,199.258 7.021,198.024 7.457,196.83C7.815,195.854 8.243,194.904 8.729,193.984C9.387,192.739 10.148,191.55 10.981,190.416C11.996,189.036 13.117,187.736 14.308,186.507C15.83,184.937 17.467,183.482 19.18,182.124C21.127,180.581 26.2,177.065 28.315,175.763Z" style="fill:rgb(64,64,64);fill-rule:nonzero;"/>
    <g>
        <path id="Left-Ear" d="M42.807,114.959C46.779,115.97 48.333,119.074 49.582,122.486C51.388,127.419 52.073,133.137 54.452,135.289C59.468,139.826 68.268,136.21 70.834,131.539C73.4,126.868 71.527,111.854 69.847,107.262C61.949,85.665 29.483,85.315 27.412,116.736C27.034,122.471 32.62,138.486 38.067,139.434C41.062,139.955 44.895,137.88 46.812,136.842" style="fill:rgb(242,242,242);"/>
        <path d="M48.99,89.757C49.235,89.758 49.48,89.763 49.725,89.772C50.256,89.791 50.786,89.829 51.315,89.885C52.989,90.062 54.644,90.423 56.243,90.953C58.266,91.623 60.199,92.564 61.979,93.738C63.452,94.709 64.819,95.84 66.053,97.101C67.081,98.152 68.016,99.293 68.848,100.505C69.634,101.65 70.327,102.858 70.924,104.113C71.191,104.674 71.438,105.244 71.667,105.822C71.799,106.157 71.927,106.494 72.042,106.835C72.156,107.171 72.258,107.511 72.354,107.853C72.46,108.233 72.557,108.616 72.649,109C72.866,109.91 73.05,110.828 73.214,111.749C73.413,112.867 73.582,113.99 73.727,115.116C73.881,116.319 74.007,117.526 74.103,118.735C74.231,120.343 74.308,121.956 74.308,123.569C74.309,124.284 74.294,124.999 74.259,125.714C74.227,126.358 74.179,127.001 74.108,127.641C74.016,128.467 73.888,129.291 73.693,130.1C73.524,130.804 73.305,131.5 72.999,132.157C72.848,132.482 72.673,132.795 72.483,133.098C72.131,133.656 71.725,134.179 71.281,134.667C70.732,135.269 70.125,135.818 69.478,136.314C68.86,136.787 68.206,137.214 67.525,137.592C67.038,137.862 66.537,138.108 66.024,138.328C65.643,138.491 65.256,138.641 64.864,138.775C64.554,138.881 64.241,138.977 63.925,139.064C62.21,139.534 60.403,139.715 58.634,139.489C58.39,139.458 58.147,139.419 57.906,139.372C57.602,139.313 57.3,139.241 57.002,139.156C56.594,139.04 56.193,138.9 55.802,138.735C55.299,138.523 54.813,138.27 54.351,137.979C53.989,137.751 53.641,137.499 53.31,137.226C53.135,137.081 52.963,136.931 52.799,136.772C52.329,136.315 51.93,135.789 51.588,135.231C51.15,134.519 50.8,133.755 50.497,132.977C50.159,132.113 49.878,131.228 49.615,130.339C49.32,129.34 49.049,128.334 48.771,127.33C48.727,127.175 48.684,127.019 48.64,126.864C48.445,126.171 48.245,125.48 48.028,124.793C47.91,124.42 47.788,124.049 47.659,123.68C47.555,123.383 47.447,123.088 47.335,122.793C47.225,122.502 47.11,122.212 46.99,121.924C46.894,121.695 46.794,121.467 46.69,121.242C46.62,121.091 46.547,120.941 46.471,120.792C46.409,120.668 46.345,120.545 46.278,120.424C45.882,119.702 45.407,119.014 44.802,118.451C44.698,118.354 44.59,118.261 44.478,118.172C44.313,118.04 44.14,117.919 43.961,117.808C43.655,117.619 43.329,117.461 42.993,117.333C42.777,117.251 42.556,117.182 42.333,117.122L42.297,117.113L42.256,117.102L42.061,117.042C41.893,116.973 41.848,116.961 41.691,116.87C41.337,116.663 41.044,116.358 40.852,115.996C40.757,115.815 40.686,115.622 40.643,115.422C40.586,115.155 40.579,114.878 40.622,114.609C40.666,114.339 40.759,114.079 40.897,113.843C41,113.667 41.127,113.505 41.275,113.363C41.472,113.174 41.703,113.022 41.955,112.917C42.27,112.786 42.614,112.729 42.954,112.752C43.022,112.756 43.09,112.764 43.158,112.775C43.263,112.792 43.364,112.818 43.466,112.845C43.561,112.87 43.655,112.896 43.748,112.923C44.256,113.072 44.754,113.256 45.235,113.478C45.725,113.705 46.197,113.971 46.644,114.275C47.001,114.518 47.343,114.785 47.665,115.073C48.137,115.495 48.57,115.961 48.959,116.46C49.313,116.913 49.634,117.392 49.926,117.888C50.518,118.895 50.99,119.967 51.408,121.056C51.651,121.686 51.878,122.323 52.088,122.965C52.316,123.659 52.526,124.358 52.728,125.06C52.987,125.962 53.233,126.868 53.484,127.773C53.546,127.996 53.609,128.219 53.672,128.441C53.849,129.061 54.032,129.68 54.235,130.293C54.408,130.818 54.595,131.338 54.815,131.845C54.952,132.164 55.102,132.477 55.276,132.777C55.356,132.915 55.441,133.05 55.533,133.18C55.616,133.297 55.705,133.41 55.802,133.515C55.871,133.589 55.945,133.657 56.022,133.724C56.272,133.941 56.541,134.136 56.825,134.306C57.01,134.416 57.202,134.516 57.398,134.604C57.95,134.852 58.54,135.011 59.139,135.092C59.743,135.174 60.358,135.179 60.965,135.124C61.15,135.108 61.334,135.086 61.517,135.058C61.725,135.027 61.931,134.99 62.136,134.947C62.407,134.889 62.675,134.821 62.941,134.744C63.272,134.647 63.598,134.535 63.919,134.409C64.32,134.252 64.713,134.073 65.095,133.874C65.598,133.613 66.082,133.316 66.541,132.984C66.862,132.752 67.17,132.503 67.462,132.235C67.73,131.989 67.984,131.728 68.218,131.449C68.387,131.248 68.544,131.038 68.688,130.819C68.774,130.687 68.856,130.551 68.928,130.412C69.001,130.27 69.064,130.124 69.119,129.975C69.184,129.799 69.242,129.621 69.293,129.44C69.422,128.987 69.514,128.524 69.588,128.06C69.694,127.4 69.76,126.735 69.805,126.07C69.857,125.308 69.88,124.544 69.883,123.78C69.889,122.363 69.829,120.945 69.726,119.531C69.614,117.995 69.451,116.462 69.238,114.936C69.071,113.731 68.874,112.53 68.632,111.338C68.533,110.848 68.426,110.36 68.308,109.875C68.206,109.454 68.095,109.035 67.968,108.621C67.921,108.464 67.871,108.309 67.817,108.155C67.774,108.033 67.729,107.912 67.684,107.791C67.619,107.619 67.552,107.449 67.484,107.279C67.23,106.651 66.948,106.034 66.64,105.431C65.874,103.933 64.938,102.522 63.846,101.242C62.553,99.726 61.042,98.398 59.368,97.318C57.848,96.338 56.195,95.563 54.467,95.03C53.383,94.696 52.27,94.457 51.144,94.319C49.837,94.159 48.512,94.137 47.201,94.261C45.73,94.399 44.277,94.72 42.888,95.223C42.075,95.517 41.284,95.873 40.524,96.286C39.76,96.702 39.029,97.176 38.336,97.702C37.63,98.238 36.964,98.828 36.345,99.462C35.824,99.994 35.336,100.558 34.881,101.146C34.585,101.53 34.302,101.925 34.033,102.329C33.823,102.645 33.62,102.968 33.427,103.295C31.994,105.717 31.032,108.395 30.422,111.135C30.316,111.615 30.22,112.097 30.134,112.581C30.02,113.218 29.924,113.859 29.844,114.502C29.75,115.264 29.678,116.028 29.625,116.794C29.622,116.839 29.619,116.884 29.617,116.929C29.596,117.319 29.608,117.709 29.636,118.097C29.667,118.526 29.717,118.952 29.779,119.377C29.855,119.904 29.95,120.428 30.057,120.949C30.176,121.529 30.311,122.105 30.458,122.678C30.682,123.552 30.935,124.419 31.211,125.278C31.512,126.21 31.84,127.133 32.198,128.044C32.523,128.875 32.873,129.697 33.251,130.506C33.608,131.272 33.991,132.026 34.406,132.762C34.623,133.146 34.849,133.525 35.087,133.897C35.273,134.189 35.466,134.476 35.668,134.757C35.943,135.14 36.235,135.513 36.551,135.865C36.811,136.155 37.088,136.432 37.391,136.677C37.568,136.82 37.754,136.954 37.953,137.064C38.09,137.139 38.235,137.205 38.388,137.242C38.427,137.251 38.467,137.258 38.507,137.264C38.556,137.271 38.605,137.278 38.655,137.283C38.819,137.3 38.984,137.306 39.149,137.303C39.414,137.298 39.679,137.272 39.941,137.232C40.227,137.188 40.51,137.128 40.79,137.056C41.427,136.892 42.048,136.67 42.656,136.42C43.297,136.156 43.925,135.858 44.542,135.542C44.951,135.333 45.355,135.115 45.759,134.896L45.943,134.808C46.113,134.744 46.154,134.722 46.332,134.683C46.732,134.594 47.154,134.618 47.541,134.753C47.734,134.821 47.917,134.915 48.085,135.033C48.364,135.229 48.596,135.49 48.758,135.79C48.888,136.03 48.972,136.293 49.007,136.564C49.032,136.767 49.03,136.973 48.999,137.175C48.958,137.445 48.867,137.706 48.731,137.943C48.562,138.239 48.323,138.494 48.04,138.683C47.926,138.759 47.798,138.825 47.678,138.889C47.576,138.944 47.475,138.999 47.373,139.053C46.93,139.29 46.485,139.522 46.034,139.744C45.165,140.171 44.277,140.563 43.364,140.888C42.618,141.153 41.854,141.375 41.075,141.526C40.305,141.674 39.519,141.753 38.735,141.722C38.366,141.708 37.997,141.671 37.633,141.604C37.453,141.57 37.275,141.528 37.099,141.477C36.96,141.436 36.823,141.391 36.688,141.341C35.696,140.971 34.817,140.348 34.048,139.629C33.918,139.507 33.79,139.383 33.666,139.255C33.489,139.075 33.317,138.889 33.15,138.699C32.943,138.463 32.743,138.221 32.55,137.974C32.026,137.305 31.549,136.6 31.105,135.876C30.59,135.037 30.119,134.172 29.681,133.291C29.168,132.26 28.7,131.207 28.269,130.139C27.819,129.026 27.409,127.897 27.039,126.756C26.756,125.887 26.497,125.011 26.263,124.129C26.043,123.298 25.845,122.461 25.678,121.619C25.538,120.917 25.419,120.21 25.33,119.499C25.254,118.89 25.201,118.277 25.185,117.663C25.179,117.393 25.179,117.123 25.19,116.853C25.2,116.605 25.219,116.357 25.238,116.11C25.262,115.794 25.289,115.478 25.32,115.162C25.446,113.862 25.627,112.567 25.873,111.284C26.334,108.88 27.021,106.515 27.987,104.264C28.529,103.001 29.159,101.775 29.882,100.606C30.718,99.253 31.678,97.977 32.76,96.81C33.411,96.108 34.106,95.445 34.841,94.831C35.768,94.056 36.758,93.356 37.799,92.744C39.082,91.991 40.442,91.371 41.853,90.898C43.295,90.413 44.788,90.082 46.299,89.906C46.827,89.845 47.357,89.803 47.888,89.779C48.133,89.768 48.378,89.762 48.623,89.758C48.745,89.757 48.868,89.757 48.99,89.757Z" style="fill:rgb(64,64,64);fill-rule:nonzero;"/>
    </g>
    <g>
        <path id="Right-Ear" d="M250.069,113.075C252.096,110.689 256.15,105.917 259.302,102.436C274.699,85.433 259.99,65.689 248.462,66.305C236.864,66.924 224.988,86.358 224.743,92.921C224.398,102.161 229.594,109.507 233.399,109.915C237.205,110.324 244.529,103.594 247.575,95.374" style="fill:rgb(242,242,242);"/>
        <path d="M249.091,64.041C249.257,64.043 249.423,64.047 249.59,64.055C249.895,64.07 250.199,64.095 250.503,64.131C252.534,64.371 254.494,65.073 256.281,66.055C256.563,66.21 256.842,66.372 257.116,66.541C257.443,66.743 257.765,66.954 258.081,67.174C258.474,67.449 258.858,67.736 259.233,68.037C260.732,69.239 262.073,70.636 263.235,72.166C265.225,74.786 266.691,77.807 267.489,81C267.748,82.037 267.937,83.093 268.052,84.156C268.173,85.285 268.211,86.424 268.164,87.559C268.121,88.586 268.009,89.61 267.828,90.621C267.675,91.482 267.473,92.334 267.225,93.172C266.759,94.75 266.128,96.278 265.363,97.734C264.593,99.2 263.686,100.593 262.677,101.905C262.339,102.345 261.989,102.776 261.628,103.198C261.474,103.378 261.319,103.556 261.162,103.733C260.901,104.025 260.638,104.314 260.376,104.605C259.102,106.028 257.844,107.466 256.594,108.91C255.116,110.618 253.65,112.337 252.186,114.057L251.784,114.532C251.738,114.581 251.694,114.632 251.646,114.679C251.454,114.868 251.228,115.022 250.982,115.131C250.735,115.241 250.47,115.305 250.201,115.321C249.999,115.333 249.796,115.317 249.598,115.275C249.269,115.204 248.957,115.059 248.69,114.853C248.424,114.646 248.206,114.38 248.055,114.079C247.935,113.837 247.859,113.575 247.831,113.307C247.803,113.039 247.824,112.766 247.892,112.506C247.943,112.31 248.02,112.122 248.122,111.947C248.212,111.792 248.244,111.759 248.354,111.618C248.885,110.993 249.416,110.369 249.947,109.745C251.13,108.358 252.316,106.974 253.511,105.597C254.416,104.552 255.327,103.511 256.244,102.477C256.555,102.127 256.867,101.778 257.18,101.43C257.359,101.231 257.539,101.032 257.718,100.833C257.773,100.771 257.828,100.71 257.883,100.648C258.072,100.433 258.258,100.217 258.441,99.998C258.817,99.545 259.18,99.08 259.527,98.604C260.494,97.277 261.336,95.855 262.003,94.354C262.357,93.555 262.662,92.734 262.91,91.895C263.187,90.959 263.393,90.003 263.522,89.035C263.675,87.887 263.72,86.724 263.654,85.567C263.589,84.422 263.416,83.284 263.143,82.171C262.691,80.329 261.964,78.555 261.008,76.918C260.376,75.837 259.645,74.814 258.824,73.869C258.187,73.136 257.495,72.449 256.753,71.823C256.211,71.366 255.641,70.941 255.046,70.556C254.761,70.372 254.47,70.196 254.173,70.031C253.29,69.541 252.354,69.14 251.379,68.876C250.656,68.679 249.911,68.559 249.161,68.543C248.86,68.536 248.558,68.548 248.258,68.575C247.6,68.635 246.949,68.769 246.316,68.956C245.58,69.175 244.866,69.465 244.178,69.804C243.293,70.24 242.448,70.756 241.64,71.322C240.675,71.997 239.761,72.744 238.89,73.536C237.948,74.394 237.055,75.306 236.206,76.256C235.337,77.226 234.513,78.237 233.73,79.278C232.898,80.385 232.112,81.528 231.374,82.7C230.71,83.756 230.085,84.837 229.508,85.942C229.133,86.661 228.779,87.39 228.452,88.131C228.18,88.746 227.927,89.37 227.702,90.003C227.521,90.514 227.358,91.031 227.227,91.557C227.172,91.777 227.123,91.999 227.083,92.222C227.051,92.404 227.024,92.587 227.007,92.771C226.997,92.881 226.991,92.992 226.988,93.103C226.984,93.232 226.981,93.362 226.979,93.492C226.973,93.908 226.979,94.324 226.998,94.74C227.062,96.19 227.277,97.634 227.64,99.04C227.829,99.769 228.058,100.489 228.329,101.192C228.588,101.868 228.886,102.529 229.224,103.169C229.629,103.933 230.091,104.669 230.624,105.351C231.011,105.846 231.436,106.315 231.912,106.726C232.081,106.872 232.257,107.011 232.44,107.138C232.583,107.237 232.731,107.33 232.885,107.412C232.999,107.473 233.116,107.528 233.237,107.574C233.338,107.612 233.441,107.644 233.547,107.664C233.584,107.671 233.621,107.677 233.658,107.68C233.811,107.691 233.965,107.67 234.114,107.64C234.381,107.587 234.641,107.498 234.893,107.395C235.348,107.208 235.782,106.97 236.199,106.709C236.726,106.38 237.227,106.01 237.708,105.618C238.371,105.076 238.997,104.49 239.591,103.873C240.272,103.166 240.912,102.42 241.511,101.643C242.166,100.793 242.774,99.905 243.329,98.987C243.914,98.02 244.441,97.018 244.899,95.984C245.076,95.583 245.243,95.177 245.399,94.767L245.432,94.679L245.467,94.588L245.546,94.402C245.577,94.342 245.607,94.282 245.641,94.224C245.71,94.108 245.789,93.999 245.877,93.897C246.054,93.694 246.268,93.523 246.505,93.395C246.682,93.298 246.873,93.226 247.07,93.181C247.266,93.136 247.469,93.117 247.671,93.126C247.873,93.134 248.073,93.17 248.266,93.232C248.522,93.315 248.763,93.444 248.974,93.611C249.185,93.779 249.365,93.984 249.504,94.215C249.643,94.446 249.739,94.702 249.788,94.967C249.837,95.232 249.837,95.506 249.79,95.771C249.778,95.837 249.763,95.903 249.745,95.968C249.715,96.078 249.684,96.159 249.646,96.26C249.607,96.365 249.567,96.469 249.526,96.573C249.391,96.92 249.25,97.263 249.102,97.604C248.532,98.916 247.868,100.186 247.124,101.408C246.532,102.379 245.89,103.319 245.202,104.224C244.665,104.93 244.1,105.614 243.506,106.272C243.005,106.828 242.484,107.365 241.942,107.879C241.516,108.284 241.077,108.674 240.623,109.047C240.259,109.347 239.885,109.635 239.502,109.91C238.893,110.345 238.26,110.747 237.597,111.093C237.067,111.37 236.518,111.612 235.951,111.799C235.092,112.082 234.182,112.24 233.277,112.164C232.864,112.129 232.456,112.046 232.06,111.925C231.254,111.679 230.501,111.277 229.813,110.792C229.35,110.466 228.914,110.1 228.504,109.708C228.011,109.236 227.555,108.725 227.132,108.19C226.566,107.474 226.059,106.713 225.605,105.923C225.048,104.954 224.569,103.94 224.164,102.899C223.232,100.505 222.687,97.962 222.527,95.399C222.488,94.782 222.472,94.164 222.478,93.545C222.479,93.388 222.482,93.231 222.486,93.074C222.491,92.924 222.496,92.773 222.505,92.623C222.517,92.425 222.537,92.228 222.561,92.031C222.63,91.485 222.74,90.946 222.874,90.413C223.017,89.85 223.186,89.295 223.375,88.746C223.58,88.147 223.808,87.556 224.052,86.972C224.355,86.247 224.682,85.533 225.028,84.829C225.52,83.828 226.05,82.846 226.61,81.883C227.178,80.906 227.778,79.947 228.406,79.008C229.091,77.984 229.811,76.983 230.565,76.008C231.294,75.064 232.056,74.144 232.852,73.255C233.528,72.499 234.229,71.766 234.956,71.06C235.528,70.505 236.116,69.966 236.722,69.449C237.21,69.033 237.709,68.631 238.221,68.245C238.611,67.95 239.009,67.665 239.414,67.391C239.744,67.167 240.079,66.952 240.419,66.744C240.66,66.597 240.904,66.454 241.15,66.316C242.857,65.356 244.7,64.611 246.632,64.26C246.927,64.206 247.225,64.162 247.524,64.127C247.851,64.089 248.179,64.063 248.508,64.05C248.647,64.045 248.785,64.042 248.924,64.041C248.98,64.041 249.035,64.041 249.091,64.041Z" style="fill:rgb(64,64,64);fill-rule:nonzero;"/>
    </g>
    <g id="Features">
        <path d="M178.027,166.193C180.716,166.211 183.409,166.446 186.053,166.943C187.254,167.168 188.446,167.449 189.61,167.821C190.576,168.13 191.531,168.501 192.412,169.008C193.772,169.792 194.949,170.874 195.925,172.099C196.782,173.175 197.492,174.367 198.048,175.624C198.622,176.921 199.036,178.294 199.249,179.697C199.415,180.789 199.46,181.903 199.347,183.003C199.243,184.019 198.986,185.009 198.654,185.973C198.394,186.728 198.09,187.468 197.759,188.194C197.18,189.467 196.516,190.701 195.796,191.899C195.035,193.164 194.208,194.391 193.317,195.569C192.679,196.412 192.007,197.23 191.296,198.013C190.664,198.707 190.001,199.374 189.297,199.994C188.732,200.492 188.14,200.961 187.514,201.379C187.024,201.706 186.513,202.003 185.977,202.247C185.4,202.51 184.798,202.704 184.182,202.849L183.379,214.364C185.02,214.868 186.672,215.352 188.36,215.676C188.905,215.781 189.453,215.869 190.005,215.926C190.483,215.976 190.965,216.005 191.445,215.984C192.073,215.957 192.689,215.812 193.291,215.639C194.043,215.424 194.78,215.158 195.508,214.873C197.225,214.202 198.901,213.422 200.55,212.599C200.932,212.408 201.313,212.215 201.691,212.017C201.852,211.933 202.012,211.846 202.173,211.763C202.255,211.724 202.254,211.724 202.337,211.686C202.472,211.629 202.609,211.576 202.75,211.534C203.073,211.437 203.412,211.391 203.749,211.411C203.992,211.425 204.232,211.474 204.461,211.557C204.633,211.62 204.798,211.702 204.952,211.802C205.08,211.884 205.201,211.979 205.312,212.084C205.941,212.677 206.235,213.556 206.19,214.409C206.161,214.977 205.984,215.533 205.687,216.017C205.511,216.304 205.295,216.564 205.048,216.792C204.696,217.115 204.286,217.368 203.847,217.557C203.531,217.712 203.215,217.866 202.898,218.019C200.927,218.955 198.925,219.835 196.87,220.57C196.093,220.848 195.308,221.105 194.512,221.319C193.827,221.504 193.132,221.66 192.427,221.743C191.726,221.825 191.017,221.826 190.314,221.798C189.393,221.76 188.475,221.667 187.562,221.549C186.469,221.408 185.381,221.228 184.298,221.025C183.012,220.785 181.732,220.511 180.458,220.212L180.334,220.182C179.887,220.47 179.44,220.758 178.991,221.044C178.71,221.222 178.428,221.4 178.145,221.577C176.3,222.728 174.434,223.848 172.522,224.884C171.252,225.571 169.962,226.227 168.636,226.799C168.061,227.046 167.479,227.278 166.887,227.48C166.401,227.645 165.908,227.791 165.406,227.897C164.571,228.074 163.718,228.155 162.866,228.18C161.797,228.211 160.727,228.153 159.664,228.046C157.799,227.857 155.95,227.514 154.123,227.101C153.13,226.876 152.141,226.629 151.153,226.384C150.958,226.336 150.764,226.29 150.569,226.241C150.493,226.22 150.417,226.198 150.342,226.173C150.051,226.071 149.775,225.937 149.518,225.767C149.333,225.644 149.159,225.505 148.998,225.351C148.875,225.235 148.76,225.11 148.654,224.978C148.053,224.234 147.701,223.235 147.897,222.279C147.944,222.049 148.023,221.825 148.133,221.617C148.261,221.375 148.43,221.156 148.63,220.969C148.733,220.873 148.843,220.786 148.96,220.708C149.694,220.217 150.613,220.107 151.476,220.154C151.626,220.162 151.776,220.177 151.926,220.192C151.982,220.2 151.982,220.2 152.038,220.209C152.366,220.273 152.683,220.38 153.001,220.485C153.631,220.698 154.259,220.919 154.89,221.132C156.335,221.615 157.794,222.066 159.289,222.367C159.887,222.488 160.491,222.584 161.1,222.638C161.575,222.68 162.055,222.696 162.531,222.664C162.777,222.648 163.022,222.618 163.264,222.569C163.514,222.518 163.761,222.447 164.004,222.369C164.347,222.258 164.684,222.128 165.017,221.989C165.923,221.611 166.801,221.165 167.664,220.697C168.637,220.17 169.591,219.609 170.535,219.032C171.798,218.26 173.042,217.457 174.278,216.642C175.065,216.123 175.847,215.599 176.633,215.08C176.767,214.993 176.901,214.906 177.036,214.819L177.114,214.77L177.943,202.889C177.749,202.858 177.556,202.824 177.363,202.79C177.136,202.747 177.136,202.747 176.909,202.703C175.322,202.378 173.763,201.934 172.236,201.392C170.745,200.862 169.283,200.245 167.866,199.54C166.896,199.057 165.939,198.536 165.037,197.935C163.322,196.792 161.753,195.42 160.412,193.853C159.248,192.492 158.24,190.969 157.58,189.298C157.119,188.133 156.834,186.89 156.831,185.634C156.829,184.835 156.947,184.038 157.119,183.258C157.35,182.206 157.685,181.176 158.076,180.173C158.449,179.218 158.877,178.285 159.349,177.375C159.872,176.369 160.45,175.391 161.083,174.45C161.816,173.358 162.623,172.313 163.516,171.346C164.219,170.585 164.977,169.871 165.8,169.239C166.453,168.737 167.149,168.287 167.888,167.92C169.07,167.334 170.358,166.975 171.649,166.723C173.473,166.368 175.334,166.23 177.189,166.197C177.469,166.193 177.748,166.192 178.027,166.193Z" style="fill:rgb(64,64,64);"/>
        <path id="Left-Eye" d="M94.33,186.141C90.983,189.974 110.312,201.874 117.778,192.807C119.008,191.312 120.729,189.064 120.74,187.819C120.75,186.574 120.059,185.35 117.841,185.338C115.884,185.328 114.067,189.462 106.762,189.735C102.348,189.9 95.342,184.983 94.33,186.141Z" style="fill:rgb(64,64,64);"/>
        <path id="Right-Eye" d="M237.202,156.025C241.707,158.388 227.985,176.469 217.747,170.712C216.06,169.763 213.643,168.289 213.183,167.132C212.724,165.975 212.926,164.584 214.99,163.771C216.811,163.054 219.998,166.253 226.909,163.867C231.084,162.426 235.841,155.31 237.202,156.025Z" style="fill:rgb(64,64,64);"/>
    </g>
</svg>
